<?xml version="1.0" encoding="utf-8"?>
<!-- Generator: Adobe Illustrator 22.0.0, SVG Export Plug-In . SVG Version: 6.00 Build 0)  -->
<svg version="1.1" id="Capa_1" xmlns="http://www.w3.org/2000/svg" xmlns:xlink="http://www.w3.org/1999/xlink" x="0px" y="0px"
	 viewBox="0 0 100 100" style="enable-background:new 0 0 100 100;" xml:space="preserve">
<g>
	<g>
		<g>
			<path d="M8.6,61.4h5.9c1.1,0,1.2-0.6,1.2-1c0-0.3,0-0.6,0-0.7h0.3c0,0.2,0,0.3,0,0.7c0,0.7-0.3,1.3-1.4,1.3H8.6v1.4H8.3v-1.4H5.9
				v-0.3h2.4v-1.7h0.3V61.4z"/>
			<path d="M5.3,58.6v-0.3h4.9v0C9,58,8.1,57,8.1,55.5c0-1.6,1-2.7,2.8-2.7H16v0.3h-5c-1.8,0-2.5,1.1-2.5,2.4c0,1.8,1.5,2.8,3.2,2.8
				H16v0.3H5.3z"/>
			<path d="M12.2,51.3c2.1,0,3.6-0.8,3.6-3c0-1.6-0.9-2.7-2.5-3V45c1.8,0.2,2.8,1.5,2.8,3.3c0,2.4-1.7,3.3-4,3.3c-2.5,0-4-1.6-4-3.3
				c0-2.4,2-3.4,4.1-3.3V51.3z M11.9,45.2c-1.9,0-3.5,1-3.5,3c0,1.7,1.3,3,3.5,3.1V45.2z"/>
		</g>
		<g>
			<path d="M18.3,61.8V44.9h1.3v16.9H18.3z"/>
			<path d="M42.3,45.3c-0.6-4-4.1-6.3-8-6.3c-6.2,0-9.8,5-9.8,11.1s3.6,11.1,9.8,11.1c4.6,0,8.1-4.1,8.4-8.5h1.4
				c-0.5,5.6-4.7,9.7-9.8,9.7c-7,0-11.2-5.4-11.2-12.3c0-6.9,4.2-12.3,11.2-12.3c8.3,0,9.4,7.2,9.5,7.6H42.3z"/>
			<path d="M59.4,58.7c0,1,0,2,1.1,2c0.2,0,0.5,0,0.9-0.1v1.1c-0.4,0.1-0.7,0.1-1,0.1c-2,0-2.3-1.1-2.3-2.5v-0.9h-0.1
				c-0.8,2-3.1,3.8-6.3,3.8c-3.2,0-5.7-1.2-5.7-4.8c0-4,3.4-4.8,6.2-5c5.6-0.4,5.8-0.8,5.8-3.5c0-0.8-0.9-3.3-4.7-3.3
				c-3,0-5,1.6-5.2,4.5H47c0.2-3.7,2.5-5.6,6.5-5.6c3,0,5.9,0.9,5.9,4.4V58.7z M58.1,52.2c-1,1.1-3.7,1-6.1,1.3
				c-3,0.3-4.6,1.4-4.6,3.9c0,2,1.5,3.7,4.4,3.7c5.7,0,6.3-4.9,6.3-5.8V52.2z"/>
			<path d="M64,56.2c0.2,3.1,2.5,4.9,5.6,4.9c2.2,0,5.4-0.7,5.4-3.6c0-2.9-2.9-3.3-5.8-3.9c-2.9-0.6-5.8-1.4-5.8-4.8
				c0-3.4,3.3-4.3,6.1-4.3c3.6,0,6.3,1.5,6.3,5.4h-1.3c0-3.1-2.2-4.3-5-4.3c-2.3,0-4.9,0.9-4.9,3.3c0,2.7,2.9,3.1,5.6,3.7
				c3.4,0.6,6,1.4,6,5c0,3.7-3.7,4.7-6.6,4.7c-3.9,0-6.8-2.1-6.9-6H64z"/>
			<path d="M79.7,53.5c-0.1,4,2,7.6,6.2,7.6c3.2,0,5.5-1.9,6.1-5h1.3c-0.7,4-3.3,6.1-7.3,6.1c-4.9,0-7.5-3.9-7.5-8.6
				c-0.1-4.6,2.4-9.2,7.5-9.2c5.3,0,7.7,4.2,7.4,9H79.7z M92.1,52.4c-0.1-3.6-2.3-6.9-6.2-6.9c-3.8,0-6,3.5-6.2,6.9H92.1z"/>
		</g>
		<circle cx="18.9" cy="40.9" r="1"/>
	</g>
</g>
</svg>
