<?xml version="1.0" encoding="utf-8"?>
<!-- Generator: Adobe Illustrator 22.0.0, SVG Export Plug-In . SVG Version: 6.00 Build 0)  -->
<svg version="1.1" id="Capa_1" xmlns="http://www.w3.org/2000/svg" xmlns:xlink="http://www.w3.org/1999/xlink" x="0px" y="0px"
	 viewBox="0 0 1346.9 321.4" style="enable-background:new 0 0 1346.9 321.4;" xml:space="preserve">
<style type="text/css">
	.st0{fill:#FFFFFF;}
	.st1{fill:#FFFFFF;stroke:#FFFFFF;stroke-width:0.25;stroke-miterlimit:10;}
	.st2{fill:none;stroke:#FFFFFF;stroke-width:3;stroke-miterlimit:10;}
</style>
<g>
	<g>
		<g>
			<g>
				<path class="st0" d="M737.3,162.1v8.5h6.8v5.8h-6.8V213h-10.9v-36.6h-5.9v-5.8h5.9v-8.5c0-3.8,0.9-6.6,2.9-8.3
					c1.8-1.8,4.9-2.8,8.8-2.8c1.4,0,3.5,0.1,6.2,0.5v5.8h-2.8c-1.6,0-2.8,0.4-3.3,1.1C737.5,159,737.3,160.4,737.3,162.1z"/>
				<path class="st0" d="M748.6,161.7v-10h10.9v10H748.6z M748.6,213.1v-42.5h10.9V213h-10.9V213.1z"/>
				<path class="st0" d="M787.6,213.1l-6.2-13.9l-6.2,13.9h-11.4l11.9-21.7l-11.4-20.9h11.4l5.6,13.1l5.6-13.1h11.4L787,191.4
					l11.8,21.7L787.6,213.1L787.6,213.1z"/>
				<path class="st0" d="M832.9,169.3c4.3,0,7.7,0.9,10,2.9c2.4,1.8,3.5,4.6,3.5,8v2.9h-10.8v-2.9c0-1.8-0.3-3.2-0.7-3.9
					c-0.4-0.8-1.2-1.2-2.2-1.2s-1.7,0.4-2.2,1.2c-0.4,0.8-0.7,2.1-0.7,3.9v1.3c0,1.7,0.3,2.9,0.8,3.8c0.5,0.8,1.4,1.4,2.9,1.8l6,1.8
					c2.4,0.8,4.2,2,5.5,3.8s2,4.1,2,6.7v2.9c0,3.8-1.3,6.7-3.8,8.9c-2.5,2.1-6,3.2-10.4,3.2s-7.7-1.1-10.4-3.2
					c-2.5-2.1-3.8-5-3.8-8.5v-3.4h10.8v3.4c0,2.1,0.3,3.5,0.8,4.5s1.3,1.3,2.6,1.3s2.1-0.4,2.6-1.3c0.5-0.9,0.8-2.4,0.8-4.5v-2.6
					c0-2.1-1.1-3.5-3-4.2l-5.8-1.8c-5.5-1.7-8.3-5.5-8.3-11.6V180c0-3.3,1.2-5.9,3.7-7.9C825.4,170.2,828.7,169.3,832.9,169.3z"/>
				<path class="st0" d="M866.6,202.5c0,1.8,0.3,3,0.9,3.8c0.7,0.7,1.7,1.1,3.3,1.1h2.2v5.8c-2.6,0.4-4.6,0.5-5.9,0.5
					c-7.6,0-11.4-3.7-11.4-11v-26.3h-5v-5.8h5v-8.3l10.9-5.4v13.7h6.4v5.8h-6.4V202.5z"/>
				<path class="st0" d="M892.7,169.3c9.7,0,14.6,4.6,14.6,13.9v29.9h-10.9v-2c-0.7,0.9-1.7,1.7-3.2,2.4c-1.4,0.7-2.9,0.9-4.3,0.9
					c-3.3,0-5.9-1.1-7.9-3.3s-3-5.1-3-8.9V199c0-3.7,1.3-6.7,3.9-8.8c2.6-2.2,6.2-3.3,10.8-3.3h3.8v-3.8c0-3-0.3-5.3-0.8-6.4
					c-0.5-1.2-1.6-1.7-3-1.7s-2.5,0.5-3,1.7s-0.8,3.3-0.8,6.4H878C878.2,173.9,883,169.3,892.7,169.3z M896.5,192.8h-3.8
					c-2.5,0-3.8,2.1-3.8,6.3v3.2c0,2.2,0.3,3.8,0.9,4.9c0.5,1.1,1.6,1.4,2.9,1.4c2.5,0,3.8-2.8,3.8-8.1L896.5,192.8L896.5,192.8z"/>
				<path class="st0" d="M928.1,202.5c0,1.8,0.3,3,0.9,3.8c0.7,0.7,1.7,1.1,3.3,1.1h2.2v5.8c-2.6,0.4-4.6,0.5-5.9,0.5
					c-7.6,0-11.4-3.7-11.4-11v-26.3h-5v-5.8h5v-8.3l10.9-5.4v13.7h6.4v5.8h-6.4V202.5z"/>
				<path class="st0" d="M939.7,161.7v-10h10.9v10H939.7z M939.7,213.1v-42.5h10.9V213h-10.9V213.1z"/>
				<path class="st0" d="M972.7,169.3c9.7,0,14.6,4.6,14.6,13.9v17.3c0,9.3-4.9,13.9-14.6,13.9s-14.6-4.6-14.6-13.9v-17.3
					C958,173.9,962.9,169.3,972.7,169.3z M972.7,175.1c-1.4,0-2.5,0.5-3,1.7s-0.8,3.3-0.8,6.4v17.3c0,3,0.3,5.3,0.8,6.4
					s1.4,1.7,3,1.7c1.4,0,2.5-0.5,3-1.7s0.8-3.3,0.8-6.4v-17.3c0-3-0.3-5.3-0.8-6.4C975.1,175.6,974.1,175.1,972.7,175.1z"/>
				<path class="st0" d="M994.5,213.1v-42.5h10.9v2.5c2.5-2.5,5.6-3.8,9.5-3.8c7.1,0,10.5,4.2,10.5,12.5v31.4h-10.9v-31.4
					c0-2.5-0.3-4.2-0.9-5.1c-0.7-1.1-1.7-1.6-3.2-1.6c-3.3,0-5,2.8-5,8.1v29.9L994.5,213.1L994.5,213.1z"/>
			</g>
		</g>
	</g>
	<g>
		<path class="st0" d="M1150,105.8c-1.2-0.7-2.2-1.3-3.4-2.1c0.7-0.8,1.4-1.5,2.1-2.2c3.5-3.3,7.4-5.7,12.6-5
			c5.1,0.7,9.2,3.1,12.4,7.1c5.1,6.3,8.6,13.5,11.2,21.2c1.8,5.3,3.1,10.8,4.7,16.2c0,0.2,0.1,0.3,0.2,0.5c2.8-0.8,5.6-1.6,8.4-2.3
			c8.7-2.3,17.5-4.1,26.5-3.5c4.8,0.3,9.5,1.2,13.8,3.7c5.2,3.1,7.7,8.6,6.8,14.6c-0.9,6.3-3.8,11.6-7.1,16.8
			c-4.1,6.4-9.3,11.9-14.7,17.3c-1.5,1.5-3,3.1-4.6,4.6c1.6,1.5,3.4,3,4.9,4.7c2.5,2.6,4.9,5.4,7.3,8.1c0.5,0.5,0.8,0.8,1.6,0.6
			c4.2-1.3,8.4,0.2,10.6,3.7s1.8,7.9-1,11.2c-2.3,2.6-6.8,3.6-10.1,2.2c-3.6-1.5-6.1-5.1-5.7-8.8c0.2-1.6,0.8-3.2,1.5-4.7
			c0.4-0.9,0.4-1.4-0.2-2.1c-6.7-8.2-14.7-15-23.1-21.3c-2.9-2.2-5.9-4.3-8.8-6.5c-0.4-0.3-0.8-0.6-1.5-1c0.1,0.9,0.1,1.5,0.1,2.1
			c0,6.6,0.1,13.1,0.1,19.7c0,0.9-0.3,1.4-1,1.9c-0.9,0.6-1.8,1.3-3,2.1c0.8-18-0.3-35.6-3.3-53.2c1.2-0.4,2.4-0.8,3.8-1.2
			c0.5,3.2,1,6.2,1.4,9.2c0.6,4.5,1,9,1.5,13.5c0.1,0.4,0.3,1,0.7,1.2c6.9,5.3,13.9,10.5,20.8,15.7c0,0,0.1,0,0.3,0.1
			c1.9-1.9,3.9-3.8,5.8-5.8c5.1-5.2,10.1-10.6,13.9-16.8c2.4-3.9,4.6-7.9,5.5-12.5c1.3-6.7-1.4-11.4-7.9-13.6
			c-5.3-1.8-10.8-2.2-16.3-1.6c-16.5,1.7-32,6.9-47,13.9c-1.6,0.8-3.2,1.6-5,2.5c2.2,1.2,4.2,2.2,6.1,3.3c4.5,2.6,9,5.3,13.5,7.9
			c0.3,0.2,0.7,0.6,0.8,0.9c0.2,1.4,0.3,2.9,0.5,4.5c-3.3-2-6.5-4-9.6-5.8c-10.1-5.9-20.5-11.1-31.3-15.5c-2-0.8-4.1-1.6-6.1-2.4
			c-0.8-0.3-1-0.7-0.8-1.4c0.2-0.9,0.4-1.8,0.6-2.9c3.4,1.4,6.8,2.7,10.2,4.1c3.7,1.6,7.3,3.3,10.9,4.9c0.4,0.2,1,0.3,1.4,0.1
			c7.9-4.2,16.1-7.9,24.8-10.8c-0.5-2-0.9-4-1.5-6c-2.3-8.5-5.1-16.8-9.6-24.4c-1.7-2.8-3.7-5.6-6-8c-3-3.1-6.9-4.6-11.3-3.7
			c-2.6,0.5-4.5,2.3-6.4,4.1C1150.7,105,1150.3,105.4,1150,105.8z M1235.6,219.9c3,0,5.2-2.3,5.2-5.2c0-3-2.3-5.2-5.4-5.1
			c-2.7,0-5,2.4-5,5.2C1230.4,217.6,1232.7,219.9,1235.6,219.9z"/>
		<path class="st0" d="M1111.2,190.2c-1-0.9-1.9-1.7-3-2.6c0.4-0.4,0.8-0.7,1.1-1c5.5-4.2,11.1-8.5,16.6-12.8c0.4-0.3,0.8-1,0.9-1.6
			c0.9-7.6,1.8-15.2,2.6-22.7c0.1-1.1,0.4-2.3,0.6-3.6c-3.4-0.9-6.8-1.8-10.1-2.7c-7.1-1.8-14.2-3.2-21.6-3.1
			c-4.2,0.1-8.5,0.3-12.5,2.1c-5.7,2.5-7.4,6.9-6.6,12.4c0.9,6,3.7,11.2,7.1,16.1c4.9,7.1,11.1,13.2,17.3,19.1
			c6.5,6.2,13.6,11.6,21,16.5c0.3,0.2,0.7,0.4,1,0.6c0-2.4,0-4.7,0-7c0-5.1,0-10.2,0.1-15.3c0-0.4,0.2-0.9,0.4-1.1
			c1.1-0.9,2.3-1.6,3.6-2.6c-0.9,18,0.1,35.6,3.1,53.3c-1.2,0.4-2.4,0.8-3.8,1.3c-0.4-2.9-0.9-5.7-1.3-8.5c-0.6-4.7-1-9.5-1.6-14.2
			c0-0.4-0.4-1-0.7-1.2c-7.4-4.6-14.3-9.7-20.9-15.4c-0.1-0.1-0.2-0.1-0.5-0.3c-2.1,2.1-4.3,4.2-6.4,6.4
			c-5.4,5.6-10.3,11.7-14.2,18.5c-1.8,3.1-3.3,6.4-4.1,10c-1.3,6.1,1.6,11.4,7.3,13.6c1.2,0.5,2.4,0.8,3.7,1.2c0,1.2,0,2.5,0,3.7
			c-8-0.3-14.3-6.3-15.1-14c-0.5-4.5,0.8-8.6,2.7-12.5c4.1-8.7,10-16.1,16.6-23.1c2.1-2.2,4.3-4.4,6.3-6.4c-2.5-2.6-5-5.2-7.4-7.8
			c-5.7-6-11.1-12.2-14.8-19.6c-2-4.1-3.5-8.4-3.8-13c-0.4-7,3.6-12.6,10.7-15c5.3-1.8,10.8-1.9,16.3-1.7c9.3,0.4,18.2,2.9,27.1,5.4
			c0.5,0.1,1,0.3,1.5,0.4c0.7-2.9,1.3-5.7,2.1-8.4c0.8-2.9,1.8-5.8,2.9-8.7c0.3-0.8,0.3-1.2-0.4-1.8c-3.2-2.9-3.9-7.1-2-10.9
			c1.7-3.4,5.9-5.6,9.6-4.8c4.3,0.9,7.5,4.3,7.6,8.3c0.2,4.3-2.3,8.1-6.2,9.3c-1,0.3-2.2,0.5-3.3,0.4c-1.1-0.1-1.5,0.4-1.9,1.3
			c-2.2,5.7-3.8,11.5-4.8,17.5c-1.3,8.2-2.3,16.4-3.4,24.6c-0.1,0.4,0,0.8,0,1.5c0.8-0.5,1.4-0.9,2.1-1.3c5.4-3.3,10.9-6.5,16.3-9.8
			c1.1-0.7,2.1-0.7,3.2-0.1c0.8,0.5,1.7,0.8,2.8,1.4C1139.6,168.9,1124.8,178.6,1111.2,190.2z M1141.6,111.2
			c-2.9-0.1-5.2,2.1-5.4,5.1c-0.1,2.7,2.3,5.2,5.1,5.4c2.7,0.1,5.2-2.3,5.3-5.1C1146.8,113.8,1144.5,111.3,1141.6,111.2z"/>
		<path class="st0" d="M1155.1,229.6c-6.1-3.5-12-6.9-18.1-10.3c-1.5-0.8-2.2-1.8-2-3.5c0.1-0.7,0-1.4,0-2.3
			c15,9.6,30.8,17.4,47.3,23.5c-0.2,1-0.4,1.9-0.6,2.8c-0.1,0.3-0.2,0.6-0.4,1.1c-2.7-1-5.4-2-8-3.1c-4.2-1.8-8.4-3.7-12.6-5.5
			c-0.6-0.3-1.6-0.1-2.3,0.2c-4.8,2.1-9.6,4.3-14.5,6.4c-3,1.3-6.1,2.5-9.3,3.8c0.7,2.6,1.4,5.3,2.1,7.9c2.2,8.2,4.8,16.2,9.4,23.4
			c1.7,2.6,3.7,5.2,5.9,7.4c5,4.7,10.6,4.6,15.8,0.1c4.2-3.6,7.1-8.2,9.5-13.1c4.1-8.3,6.3-17.3,8.5-26.3c2-8.5,3-17.1,3.6-25.8
			c0-0.2,0-0.4-0.1-0.8c-1.4,0.9-2.6,1.7-3.9,2.4c-5,2.9-10,5.8-15,8.7c-0.7,0.4-1.3,0.5-2,0c-0.9-0.6-1.9-1.1-3.2-1.7
			c15.9-8.2,30.6-18,44.3-29.3c0.5,0.5,1,0.9,1.5,1.3c0.4,0.4,0.9,0.8,1.5,1.3c-1.5,1.3-3,2.5-4.5,3.7c-4.5,3.4-9,6.7-13.5,10
			c-0.7,0.5-1.1,1.1-1.1,2c-0.3,8.4-1.2,16.8-2.9,25c-0.2,0.8,0,1.2,0.8,1.4c10.8,3.2,21.8,5.7,33.2,5.3c3.6-0.1,7.2-0.4,10.3-2.2
			c3.3-1.9,6.1-4.4,6.5-8.4c0.2-2.1-0.4-4.3-0.7-6.5c-0.1-0.5-0.3-0.9-0.4-1.4c1.1-0.6,2.2-1.1,3.4-1.8c1.1,2.3,1.5,4.7,1.6,7.2
			c0.4,7.2-4.4,13.6-11.6,15.6c-5.7,1.6-11.5,1.6-17.2,1.2c-8.9-0.6-17.4-2.6-25.9-5.2c-0.3-0.1-0.6-0.1-1-0.2
			c-0.4,1.4-0.7,2.7-1.1,4.1c-1.9,7.1-3.8,14.1-7,20.8c-2.6,5.5-5.7,10.6-10.2,14.7c-3.4,3.1-7.2,5.2-12,5.1s-8.4-2.6-11.5-5.9
			c-5.1-5.4-8.5-11.8-10.9-18.6c-2.2-6.2-3.8-12.6-5.7-18.9c-0.1-0.4-0.2-0.8-0.4-1.3c-1.9,0.6-3.8,1.2-5.7,1.7
			c-3.7,0.9-7.3,1.8-11,2.5c-1,0.2-1.2,0.7-1.4,1.5c-1.3,5.5-7.3,8.5-12.5,6.3c-3.6-1.6-5.9-5.5-5.5-9.2c0.5-4.2,3.5-7.4,7.4-8.2
			c4-0.7,8,1.2,9.8,4.8c0.4,0.7,0.6,1.2,1.7,1c7.8-1.2,15.3-3.6,22.6-6.5c6-2.4,11.8-5,17.7-7.6
			C1154.6,230,1154.9,229.8,1155.1,229.6z M1104.2,252.6c2.9,0,5.2-2.3,5.2-5.1c0-3-2.3-5.3-5.3-5.2c-2.9,0-5.2,2.4-5.1,5.3
			C1099,250.3,1101.3,252.6,1104.2,252.6z"/>
	</g>
</g>
<g>
	<path class="st1" d="M105.4,211.6h28.3c5.5,0,5.7-2.7,5.7-5c0-1.4-0.1-2.7-0.2-3.2h1.4c0.1,0.9,0.2,1.3,0.2,3.5c0,3.4-1.7,6-6.9,6
		h-28.6v6.8H104V213H92.3v-1.4H104v-8.3h1.4V211.6z"/>
	<path class="st1" d="M89.6,198.2v-1.4h23.5v-0.1c-5.7-1.4-10-6-10-13.3c0-7.7,4.7-13.1,13.3-13.1h24.5v1.4h-24.3
		c-8.5,0-12.1,5.5-12.1,11.7c0,8.8,7.3,13.4,15.4,13.4h20.9v1.4L89.6,198.2L89.6,198.2z"/>
	<path class="st1" d="M122.7,163.1c9.9-0.1,17.6-4.1,17.6-14.6c0-7.6-4.2-13.2-12.2-14.4v-1.4c8.5,1,13.6,7.3,13.6,15.7
		c0.1,11.4-8.3,16.2-19.3,16.2c-12.3,0-19.3-7.8-19.3-16.2c0-11.5,9.5-16.6,19.6-16.2C122.7,132.2,122.7,163.1,122.7,163.1z
		 M121.3,133.7c-9-0.1-16.7,5-16.7,14.6c0,8,6.4,14.4,16.7,14.9V133.7z"/>
</g>
<g>
	<path class="st0" d="M152.1,213.7V132h6v81.7H152.1z"/>
	<path class="st0" d="M267.7,134.1c-3-19.1-19.7-30.5-38.6-30.5c-29.7,0-47,24.3-47,53.4s17.3,53.4,47,53.4
		c22.1,0,39.2-19.7,40.5-40.8h7c-2.5,27-22.6,46.9-47.5,46.9c-34,0-54-26.2-54-59.4s20-59.4,54-59.4c40.2,0,45.4,35,45.6,36.5h-7
		V134.1z"/>
	<path class="st0" d="M350.3,198.6c0,4.8,0,9.8,5.4,9.8c1.1,0,2.5-0.2,4.4-0.5v5.1c-1.7,0.3-3.3,0.6-4.9,0.6c-9.5,0-11-5.2-11-11.9
		v-4.3h-0.3c-3.8,9.7-14.8,18.1-30.3,18.1c-15.4,0-27.3-5.9-27.3-23c0-19.1,16.5-23,30-24.1c27-1.9,28.1-3.7,28.1-17
		c0-3.7-4.1-16-22.7-16c-14.6,0-24.3,7.6-25.1,21.8h-6c0.8-18,11.9-27,31.1-27c14.3,0,28.6,4.4,28.6,21.3L350.3,198.6L350.3,198.6z
		 M344.2,167.3c-4.8,5.4-17.8,4.8-29.5,6.4c-14.3,1.6-22.4,6.7-22.4,18.9c0,9.8,7.1,17.8,21.4,17.8c27.5,0,30.5-23.5,30.5-27.8
		V167.3z"/>
	<path class="st0" d="M372.4,186.5c1,15.1,12.2,23.8,27,23.8c10.6,0,25.9-3.2,25.9-17.3c0-13.8-14-15.9-28-18.7
		c-14.1-2.9-28.1-6.5-28.1-23.2c0-16.2,15.7-21,29.5-21c17.3,0,30.2,7.5,30.2,26.1h-6c-0.2-14.8-10.5-20.8-24.1-20.8
		c-11.1,0-23.5,4.1-23.5,15.7c0,13,14,15.1,27.2,18c16.2,3,28.9,6.8,28.9,24c0,17.6-17.6,22.6-31.9,22.6c-18.6,0-32.6-10-33-29.1
		h5.9V186.5z"/>
	<path class="st0" d="M448.3,173.7c-0.3,19.2,9.8,36.7,30,36.7c15.4,0,26.4-9.2,29.2-24.3h6c-3.2,19.1-15.9,29.5-35.3,29.5
		c-23.8,0-36.4-18.7-36.1-41.3c-0.3-22.4,11.4-44.2,36.1-44.2c25.6,0,37,20.2,35.9,43.5h-65.8L448.3,173.7L448.3,173.7z
		 M508.2,168.4c-0.3-17.2-11.1-33-29.9-33c-18.1,0-28.8,16.8-30,33H508.2z"/>
</g>
<circle class="st0" cx="155.1" cy="112.9" r="5.1"/>
<line class="st2" x1="608" y1="95" x2="608" y2="234"/>
</svg>
