<?xml version="1.0" encoding="utf-8"?>
<!-- Generator: Adobe Illustrator 22.0.0, SVG Export Plug-In . SVG Version: 6.00 Build 0)  -->
<svg version="1.1" id="Capa_1" xmlns="http://www.w3.org/2000/svg" xmlns:xlink="http://www.w3.org/1999/xlink" x="0px" y="0px"
	 viewBox="0 0 300 130" style="enable-background:new 0 0 300 130;" xml:space="preserve">
<style type="text/css">
	.st0{fill:#FFFFFF;}
</style>
<g>
	<g>
		<g>
			<path class="st0" d="M35.3,94h16.2c3.2,0,3.4-1.6,3.4-2.8c0-0.8,0-1.6-0.2-1.8h0.8c0,0.4,0.2,0.8,0.2,2c0,2-1,3.4-4,3.4H35.3v4
				h-0.8v-4h-6.8v-0.8h6.6v-4.8h0.8V94H35.3z"/>
			<path class="st0" d="M26.1,86.2v-0.8h13.6l0,0c-3.2-0.8-5.8-3.4-5.8-7.6c0-4.4,2.8-7.6,7.6-7.6h14.2V71h-14c-5,0-7,3.2-7,6.8
				c0,5,4.2,7.8,8.8,7.8h12v0.8H26.1V86.2z"/>
			<path class="st0" d="M45.1,66c5.8,0,10.2-2.4,10.2-8.4c0-4.4-2.4-7.6-7-8.4v-0.8c4.8,0.6,7.8,4.2,7.8,9c0,6.6-4.8,9.4-11.2,9.4
				c-7,0-11.2-4.6-11.2-9.4c0-6.6,5.4-9.6,11.2-9.4v18H45.1z M44.3,49c-5.2,0-9.6,2.8-9.6,8.4c0,4.6,3.6,8.2,9.6,8.6V49z"/>
		</g>
		<g>
			<path class="st0" d="M62.1,95.2V48h3.6v47h-3.6V95.2z"/>
			<path class="st0" d="M128.7,49.1c-1.8-11-11.4-17.6-22.2-17.6c-17.2,0-27,14-27,30.8s10,30.8,27,30.8c12.8,0,22.6-11.4,23.4-23.6
				h4c-1.6,15.6-13,27-27.4,27c-19.6,0-31.2-15-31.2-34.2s11.6-34.2,31.2-34.2c23.2,0,26.2,20.2,26.2,21
				C132.7,49.2,128.7,49.2,128.7,49.1z"/>
			<path class="st0" d="M176.3,86.4c0,2.8,0,5.6,3.2,5.6c0.6,0,1.4,0,2.6-0.2v3c-1,0.2-2,0.4-2.8,0.4c-5.4,0-6.4-3-6.4-6.8V86h-0.2
				c-2.2,5.6-8.6,10.4-17.4,10.4c-8.8,0-15.8-3.4-15.8-13.2c0-11,9.6-13.2,17.2-14c15.6-1,16.2-2.2,16.2-9.8c0-2.2-2.4-9.2-13-9.2
				c-8.4,0-14,4.4-14.4,12.6h-3.4c0.4-10.4,6.8-15.6,18-15.6c8.2,0,16.4,2.6,16.4,12.2v27H176.3z M172.7,68.4
				c-2.8,3.2-10.2,2.8-17,3.6c-8.2,1-13,3.8-13,10.8c0,5.6,4.2,10.2,12.4,10.2c15.8,0,17.6-13.6,17.6-16V68.4z"/>
			<path class="st0" d="M188.9,79.4c0.6,8.6,7,13.8,15.6,13.8c6.2,0,15-1.8,15-10c0-8-8-9.2-16.2-10.8c-8.2-1.6-16.2-3.8-16.2-13.4
				c0-9.4,9-12,17-12c10,0,17.4,4.4,17.4,15h-3.4c0-8.6-6-12-14-12c-6.4,0-13.6,2.4-13.6,9c0,7.6,8,8.6,15.6,10.4
				c9.4,1.8,16.6,4,16.6,13.8c0,10.2-10.2,13-18.4,13c-10.8,0-18.8-5.8-19-16.8H188.9z"/>
			<path class="st0" d="M232.7,72c-0.2,11,5.6,21.2,17.2,21.2c8.8,0,15.2-5.4,16.8-14h3.4c-1.8,11-9.2,17-20.4,17
				c-13.8,0-21-10.8-20.8-23.8c-0.2-13,6.6-25.4,20.8-25.4c14.8,0,21.4,11.6,20.6,25H232.7z M267.3,69c-0.2-9.8-6.4-19-17.2-19
				c-10.4,0-16.6,9.6-17.2,19H267.3z"/>
		</g>
		<circle class="st0" cx="63.9" cy="37" r="3"/>
	</g>
</g>
</svg>
